<?xml version="1.0" encoding="UTF-8"?><svg id="uuid-e96965ac-5930-4c6b-80e0-4210ffca605d" xmlns="http://www.w3.org/2000/svg" width="109.8548" height="110.0485" viewBox="0 0 109.8548 110.0485"><defs><style>.uuid-7895a221-67f0-441f-9c5b-2e9f49bd48e3{fill:#fff;}.uuid-7895a221-67f0-441f-9c5b-2e9f49bd48e3,.uuid-eca213b2-bb5d-41f0-bd6c-83cefa47b0f2{fill-rule:evenodd;}.uuid-eca213b2-bb5d-41f0-bd6c-83cefa47b0f2{fill:#e30613;}</style></defs><g id="uuid-c4c60cc1-d216-4eb3-aa52-5a8dcad6e1c8"><g><path class="uuid-eca213b2-bb5d-41f0-bd6c-83cefa47b0f2" d="M22.0871,0H87.7675c12.2061,0,22.0872,10.0748,22.0872,22.0871V87.9613c0,12.2061-9.8812,22.0872-22.0872,22.0872H22.0871c-12.2061,0-22.0871-9.8812-22.0871-22.0872V22.0871C0,10.0748,9.8811,0,22.0871,0h0Z"/><path class="uuid-7895a221-67f0-441f-9c5b-2e9f49bd48e3" d="M38.3583,19.1388h33.1382c10.6454,0,19.4021,8.7567,19.4021,19.4022v32.9665c0,10.6454-8.7567,19.4021-19.4021,19.4021H38.3583c-10.6454,0-19.4022-8.7567-19.4022-19.4021V38.541c0-10.6455,8.7568-19.4022,19.4022-19.4022h0Zm35.8853,12.5341h0c2.2321,0,4.1209,1.8887,4.1209,4.1208h0c0,2.2321-1.8887,4.1208-4.1209,4.1208h0c-2.4038,0-4.1208-1.8887-4.1208-4.1208h0c0-2.2321,1.717-4.1208,4.1208-4.1208h0Zm-19.4021,3.7774h.1717c10.6455,0,19.5739,8.9284,19.5739,19.5739h0c0,10.8172-8.9284,19.5738-19.5739,19.5738h-.1717c-10.6454,0-19.4022-8.7567-19.4022-19.5738h0c0-10.6454,8.7568-19.5739,19.4022-19.5739h0Zm0,6.6963h.1717c7.0397,0,12.8775,5.8378,12.8775,12.8775h0c0,7.2115-5.8378,13.0492-12.8775,13.0492h-.1717c-7.0397,0-12.8775-5.8377-12.8775-13.0492h0c0-7.0397,5.8378-12.8775,12.8775-12.8775h0Zm-16.3115-16.8267h32.7948c7.3831,0,13.3927,6.0095,13.3927,13.3927v32.6231c0,7.3831-6.0096,13.3926-13.3927,13.3926H38.5299c-7.3831,0-13.3926-6.0095-13.3926-13.3926V38.7127c0-7.3831,6.0095-13.3927,13.3926-13.3927h0Z"/></g></g></svg>