<?xml version="1.0" encoding="UTF-8"?><svg id="uuid-4cf6c885-030d-4cc5-b2ff-d6cf65dcf99a" xmlns="http://www.w3.org/2000/svg" width="566.9291" height="190.1301" viewBox="0 0 566.9291 190.1301"><defs><style>.uuid-634b148a-90c2-48a7-8b9c-e241cb388126{fill:#1d1d1b;}</style></defs><g id="uuid-5561cd9c-bff7-4c94-89b2-43f61b2fed08"><path class="uuid-634b148a-90c2-48a7-8b9c-e241cb388126" d="M517.6287,141.0313c-24.0445,0-33.3387-18.3867-33.3387-41.2184,0-23.0334,10.507-41.6224,33.5403-41.6224,20.0035,0,29.904,17.7803,29.904,41.6224,0,23.6405-10.1029,41.2184-30.1057,41.2184m-51.1189,49.0988h18.7907v-32.9346c0-8.2837-.2024-14.3456-.404-18.1843h.6057c7.4764,11.5167,19.3971,17.5786,34.1468,17.5786,29.2976,0,47.2803-22.4277,47.2803-57.1808,0-35.7629-18.9931-57.1801-46.6739-57.1801-15.5577,0-26.4687,7.2733-34.5508,19.5987h-.6064v-16.9722h-18.5883V190.1301Zm-32.4075-36.7733h18.7907V44.8554h-18.7907v108.5014Zm-.4047-128.5049h19.5987V3.0306h-19.5987V24.8519Zm-43.6426,20.0035h-18.5883v108.5014h18.7907v-58.9993c0-20.4068,14.3456-32.9339,31.1161-32.9339,3.2323,0,5.0508,.2017,7.6774,1.0104h.6064v-17.7809c-2.0202-.8081-3.8387-1.2121-6.87-1.2121-14.3456,0-25.4583,8.4861-32.1259,21.0132h-.6064v-19.5987Zm-46.975,108.5014h13.1336V73.7483h-64.0501v17.5786h43.6426v3.233c-.2017,23.8421-14.3456,44.0473-44.249,44.0473-29.7017,0-50.5132-24.0445-50.5132-59.8074,0-34.5508,15.9624-61.0195,51.1196-61.0195,23.0334,0,35.7629,11.9207,40.2079,28.8936h21.4173c-5.6572-27.6815-26.0647-46.6738-61.4235-46.6738-23.2357,0-41.0167,8.2837-53.1398,22.0236-12.5271,14.1433-19.1947,34.146-19.1947,56.7761,0,22.8317,7.0716,42.2288,19.5994,55.968,12.3248,13.7399,29.9033,21.822,50.9166,21.822,19.5987,0,35.7635-8.0821,46.4722-24.4485h.6057l5.4555,21.2156Zm-191.7455-49.0987h56.1704v-16.9722h-56.1704v16.9722Zm-28.2851,49.0987h13.1335V73.7483H72.1321v17.5786h43.6433v3.233c-.2017,23.8421-14.3456,44.0473-44.249,44.0473-29.7017,0-50.5132-24.0445-50.5132-59.8074,0-34.5508,15.9624-61.0195,51.1189-61.0195,23.0341,0,35.7636,11.9207,40.2086,28.8936h21.4173C128.1008,18.9923,107.6933,0,72.3345,0,49.0988,0,31.3178,8.2837,19.1947,22.0236,6.6676,36.1669,0,56.1697,0,78.7997c0,22.8317,7.0716,42.2288,19.5988,55.968,12.3255,13.7399,29.904,21.822,50.9172,21.822,19.5987,0,35.7629-8.0821,46.4715-24.4485h.6064l5.4555,21.2156Z"/></g></svg>