<?xml version="1.0" encoding="UTF-8"?><svg id="uuid-93c94694-7ea1-4e16-8de0-e984e682c91b" xmlns="http://www.w3.org/2000/svg" width="283.4646" height="104.4719" viewBox="0 0 283.4646 104.4719"><g id="uuid-23f9a938-7156-4389-9f49-3a7ff37d22d8"><g><path d="M177.1226,52.2333c0-3.855-3.1237-6.9787-6.9787-6.9787h-24.7337c-3.855,0-6.9787,3.1237-6.9787,6.9787s3.1237,6.9839,6.9787,6.9839h16.3237c-2.7163,6.3258-9.0107,10.771-16.3237,10.771-9.789,0-17.755-7.966-17.755-17.755s7.966-17.7498,17.755-17.7498h14.8402c3.855,0,6.9787-3.1289,6.9787-6.9839s-3.1237-6.9787-6.9787-6.9787h-14.8402c-17.4886,0-31.7124,14.2291-31.7124,31.7124s14.2239,31.7177,31.7124,31.7177,31.7124-14.2291,31.7124-31.7177m45.3199-16.9976c-3.855,0-6.9787,3.1237-6.9787,6.9787v34.7526c0,3.855,3.1237,6.9839,6.9787,6.9839s6.9787-3.1289,6.9787-6.9839V42.2145c0-3.855-3.1237-6.9787-6.9787-6.9787m-1.2484-16.6633c-3.3588,.5798-5.7303,3.6252-5.7303,7.0362v.4962c0,3.4058,2.3715,6.4511,5.7303,7.031,4.4035,.7626,8.2272-2.6066,8.2272-6.869v-.8201c0-4.2677-3.8237-7.6369-8.2272-6.8742m-15.1223,16.6633c-4.2207,0-8.1958,1.0813-11.6591,2.9774-1.2641-1.8021-3.3536-2.9774-5.7198-2.9774-3.855,0-6.9787,3.1237-6.9787,6.9787v34.7526c0,3.855,3.1237,6.9839,6.9787,6.9839s6.984-3.1289,6.984-6.9839v-21.2444c0-5.7303,4.6594-6.5243,10.3949-6.5243,3.855,0,6.9787-3.1289,6.9787-6.9839s-3.1237-6.9787-6.9787-6.9787m52.5546-.9559c-4.5706,0-8.8592,1.2432-12.5471,3.4058-1.2798-1.4992-3.1812-2.4499-5.3072-2.4499-3.855,0-6.9787,3.1237-6.9787,6.9787v55.2761c0,3.855,3.1237,6.9787,6.9787,6.9787s6.9787-3.1237,6.9787-6.9787v-16.0521c3.2856,1.6089,6.9787,2.5125,10.8755,2.5125,13.6963,0,24.8382-11.1419,24.8382-24.8382s-11.1419-24.833-24.8382-24.833m0,35.7085c-5.9967,0-10.8755-4.8788-10.8755-10.8755s4.8788-10.8755,10.8755-10.8755,10.8755,4.8788,10.8755,10.8755-4.8788,10.8755-10.8755,10.8755"/><path d="M52.2359,99.0237c-25.7993,0-46.7877-20.9884-46.7877-46.7877S26.4366,5.4482,52.2359,5.4482h23.1666c4.508,0,8.1749,3.667,8.1749,8.1749,0,4.5027-3.667,8.1697-8.1749,8.1697h-23.1666c-16.7886,0-30.4431,13.6597-30.4431,30.4431s13.6545,30.4379,30.4431,30.4379c12.1866,0,23.1719-7.2451,27.988-18.4654,.3604-.841,.2716-1.8126-.2298-2.5752-.5067-.7626-1.3581-1.2275-2.2775-1.2275h-25.4807c-4.508,0-8.1749-3.6617-8.1749-8.1697s3.667-8.1749,8.1749-8.1749h38.6128c4.508,0,8.1749,3.667,8.1749,8.1749,0,25.7993-20.9884,46.7877-46.7877,46.7877m38.6128-60.4109H52.2359c-7.5115,0-13.6231,6.1116-13.6231,13.6231s6.1116,13.6231,13.6231,13.6231h20.9466c-4.5602,7.0153-12.3956,11.3665-20.9466,11.3665-13.7798,0-24.9949-11.2098-24.9949-24.9897s11.2151-24.9949,24.9949-24.9949h23.1666c7.5115,0,13.6231-6.1064,13.6231-13.6179S82.9141,0,75.4026,0h-23.1666C23.433,0,0,23.433,0,52.2359s23.433,52.2359,52.2359,52.2359,52.2359-23.433,52.2359-52.2359c0-7.5115-6.1116-13.6231-13.6231-13.6231"/></g></g></svg>