<?xml version="1.0" encoding="UTF-8"?><svg id="uuid-c140445f-1ec7-4903-810d-94c92c4287a8" xmlns="http://www.w3.org/2000/svg" width="380.22" height="189.323" xmlns:xlink="http://www.w3.org/1999/xlink" viewBox="0 0 380.22 189.323"><defs><style>.uuid-484f6719-241e-4e24-8d26-e82a00cdaac0{fill:#e30613;}.uuid-a4b655d8-cc1c-4815-86cc-8b6083d51c92{fill:none;}.uuid-a6244a9e-545f-41f7-8053-2741a6b3a506{clip-path:url(#uuid-4f0cb435-77a8-46df-b7bf-c3428ac580e3);}</style><clipPath id="uuid-4f0cb435-77a8-46df-b7bf-c3428ac580e3"><rect class="uuid-a4b655d8-cc1c-4815-86cc-8b6083d51c92" width="380.22" height="189.323"/></clipPath></defs><g id="uuid-eee115c5-0fde-4e55-a426-8c0449a91d71"><g class="uuid-a6244a9e-545f-41f7-8053-2741a6b3a506"><path class="uuid-484f6719-241e-4e24-8d26-e82a00cdaac0" d="M237.5852,70.0662c0-5.171-4.192-9.364-9.363-9.364h-33.177c-5.171,0-9.363,4.193-9.363,9.364s4.192,9.363,9.363,9.363h21.896c-3.644,8.489-12.087,14.45-21.896,14.45-13.13,0-23.813-10.682-23.813-23.813s10.683-23.814,23.813-23.814h19.906c5.172,0,9.364-4.192,9.364-9.363s-4.192-9.363-9.364-9.363h-19.906c-23.457,0-42.54,19.083-42.54,42.54s19.083,42.54,42.54,42.54,42.54-19.084,42.54-42.54m60.788-22.801c-5.171,0-9.364,4.191-9.364,9.362v46.615c0,5.171,4.193,9.364,9.364,9.364s9.363-4.193,9.363-9.364V56.6272c0-5.171-4.192-9.362-9.363-9.362m-1.677-22.352c-4.503,.781-7.687,4.865-7.687,9.434v.667c0,4.569,3.184,8.653,7.687,9.434,5.911,1.024,11.04-3.497,11.04-9.217v-1.1c0-5.72-5.129-10.243-11.04-9.218m-20.284,22.352c-5.662,0-10.992,1.448-15.639,3.993-1.695-2.415-4.496-3.993-7.669-3.993-5.171,0-9.363,4.191-9.363,9.362v46.615c0,5.171,4.192,9.364,9.363,9.364s9.363-4.193,9.363-9.364v-28.495c0-7.688,6.256-8.756,13.945-8.756,5.171,0,9.363-4.192,9.363-9.364s-4.192-9.362-9.363-9.362m70.495-1.285c-6.134,0-11.886,1.668-16.828,4.573-1.717-2.012-4.27-3.288-7.121-3.288-5.172,0-9.364,4.191-9.364,9.362v74.142c0,5.17,4.192,9.363,9.364,9.363s9.362-4.193,9.362-9.363v-21.531c4.408,2.155,9.359,3.368,14.587,3.368,18.369,0,33.313-14.945,33.313-33.314s-14.944-33.312-33.313-33.312m0,47.899c-8.043,0-14.587-6.544-14.587-14.587s6.544-14.586,14.587-14.586,14.586,6.544,14.586,14.586-6.543,14.587-14.586,14.587"/><path class="uuid-484f6719-241e-4e24-8d26-e82a00cdaac0" d="M70.0664,132.8233c-34.605,0-62.758-28.153-62.758-62.757S35.4614,7.3083,70.0664,7.3083h31.076c6.045,0,10.964,4.918,10.964,10.964s-4.919,10.963-10.964,10.963h-31.076c-22.514,0-40.831,18.316-40.831,40.831s18.317,40.831,40.831,40.831c16.346,0,31.081-9.724,37.54-24.773,.485-1.128,.37-2.426-.306-3.452-.677-1.025-1.823-1.643-3.052-1.643h-34.182c-6.045,0-10.964-4.918-10.964-10.963s4.919-10.963,10.964-10.963h51.794c6.046,0,10.963,4.918,10.963,10.963,0,34.604-28.153,62.757-62.757,62.757M121.8604,51.7943h-51.794c-10.076,0-18.272,8.196-18.272,18.272s8.196,18.272,18.272,18.272h28.101c-6.123,9.414-16.629,15.25-28.101,15.25-18.484,0-33.523-15.038-33.523-33.522s15.039-33.523,33.523-33.523h31.076c10.075,0,18.272-8.196,18.272-18.271S111.2174-.0007,101.1424-.0007h-31.076C31.4304-.0007,.0004,31.4313,.0004,70.0663s31.43,70.066,70.066,70.066,70.066-31.432,70.066-70.066c0-10.076-8.197-18.272-18.272-18.272"/><path class="uuid-484f6719-241e-4e24-8d26-e82a00cdaac0" d="M89.0538,152.6353h5.9224c5.2471,0,7.1948,3.459,7.1948,7.1553v1.0332c0,3.0215-.9941,4.1338-2.7827,5.2471,1.9082,.9141,2.7827,2.623,2.7827,5.5645v1.5908c0,4.9287-2.3452,7.7109-7.5923,7.7109h-5.5249v-28.3018Zm4.0542,11.6074h1.8286c2.7026,0,3.4185-1.3916,3.4185-3.9756,0-2.5039-.9146-3.8154-3.5776-3.8154h-1.6694v7.791Zm0,12.6396h1.749c3.2593,0,3.498-1.9873,3.498-4.7695,0-2.8223-.5171-4.293-3.4585-4.293h-1.7886v9.0625Z"/><path class="uuid-484f6719-241e-4e24-8d26-e82a00cdaac0" d="M108.7266,160.7847l2.7827,12.5605h.0796l2.7427-12.5605h4.1733l-5.8032,23.6504c-.8745,3.6172-3.1797,4.6504-5.6045,4.6504h-1.1133v-3.8154h.9146c1.6294,0,2.1465-.5566,3.0605-5.2471l-5.5249-19.2383h4.2925Z"/><path class="uuid-484f6719-241e-4e24-8d26-e82a00cdaac0" d="M126.7295,159.313c0-4.6104,3.498-6.916,6.7974-6.916s6.7969,2.3057,6.7969,6.916v1.4316h-4.0542v-1.4316c0-1.9473-1.272-2.8613-2.7427-2.8613s-2.7427,.9141-2.7427,2.8613v14.9463c0,1.9473,1.2715,2.8623,2.7427,2.8623s2.7427-.915,2.7427-2.8623v-5.3262h-3.2197v-3.5781h7.2739v8.9043c0,4.6104-3.498,6.916-6.7969,6.916s-6.7974-2.3057-6.7974-6.916v-14.9463Z"/><g><path class="uuid-484f6719-241e-4e24-8d26-e82a00cdaac0" d="M142.6275,160.7847h4.0542v2.1455c1.6699-1.4707,3.021-2.3848,5.3662-2.3848v4.293c-.3975-.1592-.7949-.2383-1.2319-.2383-1.7095,0-4.1343,1.0732-4.1343,4.3721v11.9648h-4.0542v-20.1523Z"/><path class="uuid-484f6719-241e-4e24-8d26-e82a00cdaac0" d="M157.3731,172.3911v2.7422c0,1.2725,.7554,1.9883,1.9873,1.9883,1.5503,0,1.9082-1.1533,1.9873-2.0273h4.0547c0,1.6689-.5962,3.2197-1.6299,4.293-1.0732,1.1123-2.5439,1.7881-4.4121,1.7881-2.4644,0-4.3325-1.1523-5.2866-2.9014-.5566-1.0332-.7554-2.4648-.7554-4.0947v-6.6377c0-1.6299,.1987-3.0605,.7554-4.0938,.9541-1.749,2.8223-2.9023,5.2866-2.9023,3.7363,0,6.042,2.7432,6.042,6.2803v5.5654h-8.0293Zm0-3.1797h3.9746v-2.3057c0-1.5107-.7549-2.3057-1.9873-2.3057s-1.9873,.7949-1.9873,2.3057v2.3057Z"/></g><path class="uuid-484f6719-241e-4e24-8d26-e82a00cdaac0" d="M172.5547,183.2818c.04,.9541,.7554,1.9883,2.1465,1.9883,1.312,0,1.8687-.915,1.8687-2.1865v-3.9746h-.0796c-.8745,1.3115-2.1465,2.0664-3.7764,2.0664s-2.8223-.5957-3.5376-1.9082c-.4771-.874-.6758-2.1064-.6758-4.332v-7.6719c0-2.9014,.1191-4.0547,.6362-4.8887,.6753-1.0732,1.6694-1.8291,3.6172-1.8291,1.9873,0,2.7822,.9141,3.8159,2.0674v-1.8281h4.0542v22.6172c0,2.7422-1.7886,5.9219-6.0815,5.9219-2.4644,0-5.5254-1.4307-6.042-6.042h4.0542Zm0-8.5459c0,1.2725,.4375,2.3857,1.9878,2.3857,1.1528,0,2.0273-.915,2.0273-2.1865v-7.8311c0-1.4707-.7954-2.5039-2.0273-2.5039-1.3911,0-1.9878,1.1133-1.9878,2.7432v7.3926Z"/><path class="uuid-484f6719-241e-4e24-8d26-e82a00cdaac0" d="M207.6089,180.937h-3.8154l-3.1006-18.3643h-.0791l-3.0605,18.3643h-3.8164l-4.2134-28.3018h4.2925l2.0273,17.9668h.0801l3.1797-17.9668h3.1006l3.2988,18.4043h.0801l1.9473-18.4043h4.293l-4.2139,28.3018Z"/><g><path class="uuid-484f6719-241e-4e24-8d26-e82a00cdaac0" d="M213.5689,152.6353h4.0537v4.0547h-4.0537v-4.0547Zm0,8.1494h4.0537v20.1523h-4.0537v-20.1523Z"/><path class="uuid-484f6719-241e-4e24-8d26-e82a00cdaac0" d="M220.7222,152.6353h4.0537v22.6172c0,1.5107,.4375,1.9482,1.9873,2.1074v3.8154c-3.7363,0-6.041-.9541-6.041-5.6445v-22.8955Z"/></g><g><path class="uuid-484f6719-241e-4e24-8d26-e82a00cdaac0" d="M228.314,152.6353h4.0537v22.6172c0,1.5107,.4375,1.9482,1.9873,2.1074v3.8154c-3.7363,0-6.041-.9541-6.041-5.6445v-22.8955Z"/><path class="uuid-484f6719-241e-4e24-8d26-e82a00cdaac0" d="M235.9439,152.6353h4.0537v4.0547h-4.0537v-4.0547Zm0,8.1494h4.0537v20.1523h-4.0537v-20.1523Z"/></g><g><path class="uuid-484f6719-241e-4e24-8d26-e82a00cdaac0" d="M251.1275,178.8697h-.0791c-1.0732,1.4707-1.9482,2.3057-3.8955,2.3057-1.8682,0-4.373-.9141-4.373-5.3662,0-4.6104,1.3125-6.8369,6.4004-6.8369,.5557,0,1.1123,.0801,1.9473,.1191v-2.1064c0-1.3516-.5166-2.3848-2.0273-2.3848-1.0332,0-2.0664,.7158-2.3057,2.0273h-3.9346c.1191-1.7891,.7549-3.2988,1.8281-4.3721s2.584-1.71,4.4121-1.71c3.3789,0,6.082,2.1465,6.082,6.3604v14.0312h-4.0547v-2.0674Zm0-6.5977c-.4375-.0801-.7549-.1191-1.1133-.1191-1.749,0-3.1797,.7148-3.1797,2.8613,0,1.5508,.7949,2.584,2.1064,2.584,1.3516,0,2.1865-.9541,2.1865-2.584v-2.7422Z"/><path class="uuid-484f6719-241e-4e24-8d26-e82a00cdaac0" d="M258.1607,160.7847h4.0537v1.9473h.0801c.835-1.2725,1.9473-2.1865,3.8154-2.1865,1.749,0,2.9023,1.0342,3.6172,2.0273,.9941-1.1133,2.0674-2.0273,4.2139-2.0273,2.0273,0,4.4121,1.3125,4.4121,4.9287v15.4629h-4.0547v-13.9521c0-1.4707-.7148-2.3848-1.9873-2.3848-1.5107,0-2.0273,.9941-2.0273,2.7822v13.5547h-4.0537v-13.9521c0-1.4707-.7158-2.3848-1.9883-2.3848-1.5098,0-2.0273,.9941-2.0273,2.7822v13.5547h-4.0537v-20.1523Z"/></g><path class="uuid-484f6719-241e-4e24-8d26-e82a00cdaac0" d="M288.8033,166.4282c-.0391-1.3516-.9932-2.0664-2.0664-2.0664-1.2725,0-1.9873,.9932-1.9873,2.0273,0,.7549,.1982,1.4707,1.709,2.0664l2.3848,.9541c3.0205,1.1523,3.9746,3.2988,3.9746,5.6846,0,3.3389-2.5439,6.0811-6.042,6.0811-3.1797,0-5.8828-2.1064-6.041-6.0811h3.8154c.1592,1.1123,.6758,2.2656,2.1865,2.2656,1.1523,0,2.2656-.835,2.2656-2.1865,0-1.1133-.4775-1.8682-2.0273-2.4648l-1.9473-.7148c-2.5439-.9541-4.0947-2.8623-4.0947-5.5654,0-3.418,2.7031-5.8828,5.9629-5.8828,3.2988,0,5.6836,2.5439,5.7236,5.8828h-3.8164Z"/></g></g></svg>