<?xml version="1.0" encoding="UTF-8"?>
<svg id="Layer_2" xmlns="http://www.w3.org/2000/svg" preserveAspectRatio="xMidYMid meet" viewBox="0 0 288.8 548.82" >
    <defs>
        <style>.cls-1{fill:#e10a17;}</style>
    </defs>
    <g id="Layer_1-2">
        <g>
            <path class="cls-1"
                  d="m248.28,548.82H40.52c-22.34,0-40.52-18.18-40.52-40.52V67.69C0,45.34,18.18,27.17,40.52,27.17h207.76c22.34,0,40.52,18.18,40.52,40.52v440.61c0,22.34-18.18,40.52-40.52,40.52ZM40.52,33.88c-18.64,0-33.8,15.16-33.8,33.8v440.61c0,18.64,15.16,33.8,33.8,33.8h207.76c18.64,0,33.8-15.16,33.8-33.8V67.69c0-18.64-15.16-33.8-33.8-33.8H40.52Z"/>
            <path class="cls-1"
                  d="m191.42,33.88h-94.03c-1.86,0-3.36-1.5-3.36-3.36V3.36c0-1.86,1.5-3.36,3.36-3.36h94.03c1.86,0,3.36,1.5,3.36,3.36v27.17c0,1.86-1.5,3.36-3.36,3.36Zm-90.67-6.72h87.31V6.72h-87.31v20.45Z"/>
            <path class="cls-1"
                  d="m133.15,436.1c-.25,0-.5-.03-.75-.08-1.53-.35-2.61-1.71-2.61-3.28v-123.19h-51.37c-1.15,0-2.23-.59-2.84-1.57-.61-.98-.68-2.2-.18-3.25l77.23-160.34c.68-1.41,2.25-2.16,3.78-1.82,1.53.35,2.61,1.71,2.61,3.28v123.18h51.38c1.15,0,2.23.59,2.84,1.57.61.98.68,2.2.18,3.25l-77.24,160.34c-.57,1.18-1.76,1.9-3.03,1.9Zm-49.39-133.26h49.39c1.86,0,3.36,1.5,3.36,3.36v111.83l68.53-142.26h-49.39c-1.86,0-3.36-1.5-3.36-3.36v-111.83l-68.52,142.26Z"/>
        </g>
    </g>
</svg>
