<?xml version="1.0" encoding="UTF-8"?><svg id="Layer_2" xmlns="http://www.w3.org/2000/svg" viewBox="0 0 289.34 596.19"><defs><style>.cls-1{fill:#e10a17;}</style></defs><g id="Layer_1-2"><g><path class="cls-1" d="m168.32,596.19h-47.3c-66.73,0-121.02-52.93-121.02-117.99V60.77C0,40.84,8.1,23.86,22.8,12.94,41.37-.84,68.45-3.77,97.11,4.89l97.07,29.35c52.47,15.87,95.16,66.1,95.16,111.98v331.98c0,65.06-54.29,117.99-121.02,117.99ZM65.63,6.71c-15.01,0-28.45,3.93-38.82,11.62C13.67,28.09,6.72,42.77,6.72,60.77v417.43c0,61.35,51.28,111.27,114.3,111.27h47.3c63.03,0,114.3-49.91,114.3-111.27V146.22c0-43.13-40.55-90.48-90.39-105.55L95.16,11.32c-10.21-3.09-20.18-4.61-29.54-4.61Z"/><g><path class="cls-1" d="m136.99,62.15c7.76,0,16.71,1.18,25.98,3.65l22.89,6.1c4.45,1.19,7.68,3.63,7.19,5.45-.31,1.16-2.05,1.79-4.41,1.79-1.36,0-2.92-.21-4.54-.64l-22.89-6.1c-6.03-1.61-11.86-2.38-16.9-2.38-8.82,0-15.29,2.35-16.44,6.66-1.81,6.78,10.21,15.89,26.79,20.31,5.96,1.59,11.82,2.38,16.94,2.38s9.68-.82,12.69-2.47c.45-.24.47-.66.05-1.1-.42-.44-1.21-.85-2.12-1.09l-25.17-6.71c-4.45-1.19-7.68-3.63-7.19-5.45.31-1.16,2.05-1.79,4.41-1.79,1.36,0,2.92.21,4.54.64l38.14,10.17c4.45,1.19,7.68,3.63,7.19,5.45-1.77,6.63-11.71,10.23-25.27,10.23-7.76,0-16.71-1.18-25.98-3.65-25.48-6.79-43.96-20.79-41.18-31.21,1.77-6.63,11.71-10.23,25.27-10.23m0-6.72c-17.61,0-29.18,5.55-31.76,15.22-3.36,12.62,11.34,30.21,45.94,39.44,9.52,2.54,19.11,3.88,27.71,3.88,17.61,0,29.18-5.55,31.76-15.22.46-1.72.97-6.15-4.18-10.05-2.07-1.57-4.76-2.82-7.78-3.63l-3.16-.84c2.82-1.66,3.74-4.13,4.01-5.14,1.56-5.86-3.24-11.35-11.96-13.68l-22.89-6.1c-9.52-2.54-19.11-3.88-27.71-3.88h0Zm-2.38,23.07c1.07-.64,4.01-1.75,9.7-1.75.52,0,1.04,0,1.57.03-1.67,1.51-2.29,3.24-2.51,4.04-.25.94-.52,2.69.14,4.73-5.16-2.75-8.09-5.54-8.9-7.04h0Z"/><path class="cls-1" d="m124.93,49.2c12.22,0,26.3,1.86,40.94,5.76,40.16,10.7,69.17,32.69,64.79,49.11-2.78,10.44-18.39,16.12-39.71,16.12-12.22,0-26.3-1.86-40.94-5.76-40.16-10.7-69.17-32.69-64.79-49.11,2.78-10.44,18.39-16.11,39.71-16.12m0-6.72h0c-25.79,0-42.62,7.69-46.2,21.1-2.87,10.75,3.57,22.75,18.13,33.79,12.92,9.79,31.18,18.15,51.43,23.55,14.7,3.92,29.46,5.99,42.67,5.99,25.79,0,42.62-7.69,46.2-21.1,6.27-23.53-31.16-47.1-69.55-57.34-14.7-3.92-29.45-5.99-42.66-5.99h0Z"/></g><path class="cls-1" d="m198.23,145.93c-13.82,0-30.73-2.08-51.07-6.18-70.69-14.25-89.77-61.93-91.16-79.09-.56-6.87-1.26-8.69-4.41-11.46-2.42-2.12-8.05.46-15.74,4.32-8.08,4.06-15.33,11.41-15.4,11.49-1.29,1.33-3.42,1.35-4.75.05-1.33-1.3-1.35-3.42-.05-4.75.33-.33,8.08-8.22,17.19-12.79,8.84-4.44,17.19-8.64,23.19-3.37,4.99,4.38,6.05,8.29,6.67,15.97.05.57,6.79,57.12,85.79,73.05,67.63,13.64,83.61,1.19,89.75-9.36,2.69-4.62,4.12-9.2,5.39-13.25,1.17-3.75,2.18-6.99,3.95-9.39,1.9-2.58,4.11-3.24,5.63-3.35,2.56-.18,5.27,1.08,7.78,3.64,6.37,6.48,11.16,14.1,13.32,18.65.8,1.68.08,3.68-1.59,4.48-1.67.8-3.68.08-4.48-1.59-1.56-3.29-5.86-10.53-12.05-16.83-1.37-1.4-2.25-1.67-2.51-1.64-.09,0-.36.18-.69.63-1.1,1.5-1.96,4.24-2.95,7.41-1.3,4.17-2.92,9.35-5.99,14.63-7.32,12.57-21.98,18.74-45.81,18.74Z"/></g></g></svg>