<?xml version="1.0" encoding="UTF-8"?>
<svg id="Layer_2" xmlns="http://www.w3.org/2000/svg" viewBox="0 0 1000 1000">
    <defs>
        <style>.cls-1{fill:#fff;}.cls-2{fill:#e10a17;}</style>
    </defs>
    <g id="Layer_1-2">
        <g>
            <rect class="cls-1" width="1000" height="1000"/>
            <g>
                <path class="cls-2"
                      d="m851.22,833.35H148.78c-38.29,0-69.45-31.16-69.45-69.45v-268.18c0-27.04,15.88-51.81,40.45-63.12,2.52-1.17,5.53-.06,6.68,2.47,1.17,2.53.06,5.52-2.47,6.68-21.01,9.67-34.58,30.85-34.58,53.97v268.18c0,32.74,26.64,59.37,59.37,59.37h702.44c32.74,0,59.38-26.64,59.38-59.37v-268.18c0-32.74-26.64-59.37-59.38-59.37H282.88c-2.79,0-5.04-2.26-5.04-5.04s2.25-5.04,5.04-5.04h568.34c38.3,0,69.46,31.16,69.46,69.45v268.18c0,38.3-31.16,69.45-69.46,69.45Z"/>
                <path class="cls-2"
                      d="m215.85,512.54h-26.95c-39.74,0-72.07-31.55-72.07-70.34v-237.8c0-12.37,5.06-22.93,14.25-29.76,11.38-8.45,27.81-10.29,45.1-5.06l55.29,16.72c31.12,9.41,56.44,39.37,56.44,66.78v189.12c0,38.78-32.33,70.34-72.07,70.34Zm-58.51-335.82c-7.87,0-14.87,2.03-20.24,6.01-6.66,4.95-10.18,12.44-10.18,21.66v237.8c0,33.23,27.81,60.26,61.99,60.26h26.95c34.18,0,61.99-27.03,61.99-60.26v-189.12c0-23.29-22.1-48.92-49.27-57.13h0l-55.29-16.72c-5.53-1.67-10.91-2.5-15.94-2.5Z"/>
                <path class="cls-2"
                      d="m228.97,245.84c-7.82,0-16.48-1.25-24.84-3.48-11.68-3.11-22.24-7.95-29.72-13.62-8.71-6.6-12.54-13.89-10.76-20.53,1.76-6.63,8.71-11.05,19.55-12.44,9.32-1.2,20.87-.14,32.56,2.98,23,6.13,44.29,19.83,40.48,34.15,0,0,0,0,0,0-2.43,9.11-13.56,12.94-27.26,12.94Zm-37.78-40.47c-2.36,0-4.61.13-6.71.4-6.98.9-10.6,3.18-11.09,5.04-.5,1.87,1.51,5.65,7.11,9.9,6.46,4.9,15.78,9.13,26.23,11.92,21.97,5.85,38.48,2.48,39.77-2.33,1.27-4.81-11.37-15.96-33.34-21.81-7.71-2.06-15.29-3.12-21.96-3.12Zm60.17,26.23h.05-.05Z"/>
                <path class="cls-2"
                      d="m838.59,680.15h-111.05c-33.24,0-60.28-27.04-60.28-60.28v-111.05c0-33.24,27.04-60.28,60.28-60.28h111.05c33.24,0,60.27,27.04,60.27,60.28v111.05c0,33.24-27.04,60.28-60.27,60.28Zm-111.05-221.52c-27.68,0-50.2,22.52-50.2,50.2v111.05c0,27.68,22.52,50.2,50.2,50.2h111.05c27.68,0,50.2-22.52,50.2-50.2v-111.05c0-27.68-22.52-50.2-50.2-50.2h-111.05Z"/>
                <g>
                    <path class="cls-2"
                          d="m733.37,565.11c-25.92,0-47-21.09-47-47s21.08-47.01,47-47.01,47.01,21.09,47.01,47.01-21.09,47-47.01,47Zm0-83.93c-20.36,0-36.92,16.57-36.92,36.93s16.56,36.92,36.92,36.92,36.93-16.56,36.93-36.92-16.57-36.93-36.93-36.93Z"/>
                    <path class="cls-2"
                          d="m783.07,657.6c-25.92,0-47.01-21.09-47.01-47s21.09-47.01,47.01-47.01,47.01,21.09,47.01,47.01-21.09,47-47.01,47Zm0-83.93c-20.36,0-36.93,16.57-36.93,36.93s16.57,36.92,36.93,36.92,36.93-16.56,36.93-36.92-16.57-36.93-36.93-36.93Z"/>
                    <path class="cls-2"
                          d="m832.76,565.11c-25.92,0-47-21.09-47-47s21.08-47.01,47-47.01,47.01,21.09,47.01,47.01-21.09,47-47.01,47Zm0-83.93c-20.36,0-36.92,16.57-36.92,36.93s16.56,36.92,36.92,36.92,36.93-16.56,36.93-36.92-16.57-36.93-36.93-36.93Z"/>
                    <path class="cls-2"
                          d="m711.29,633.03c-12.22,0-22.16-9.94-22.16-22.16s9.94-22.16,22.16-22.16,22.16,9.94,22.16,22.16-9.94,22.16-22.16,22.16Zm0-34.23c-6.66,0-12.08,5.42-12.08,12.08s5.42,12.08,12.08,12.08,12.08-5.42,12.08-12.08-5.42-12.08-12.08-12.08Z"/>
                    <path class="cls-2"
                          d="m854.85,633.03c-12.22,0-22.16-9.94-22.16-22.16s9.94-22.16,22.16-22.16,22.16,9.94,22.16,22.16-9.94,22.16-22.16,22.16Zm0-34.23c-6.66,0-12.08,5.42-12.08,12.08s5.42,12.08,12.08,12.08,12.08-5.42,12.08-12.08-5.42-12.08-12.08-12.08Z"/>
                </g>
                <path class="cls-2"
                      d="m205.24,779.26h-4.94c-28.53,0-51.75-23.21-51.75-51.74v-130.15c0-28.53,23.22-51.74,51.75-51.74h4.94c28.53,0,51.74,23.21,51.74,51.74v130.15c0,28.53-23.21,51.74-51.74,51.74Zm-4.94-223.56c-22.97,0-41.67,18.69-41.67,41.66v130.15c0,22.97,18.69,41.66,41.67,41.66h4.94c22.97,0,41.66-18.69,41.66-41.66v-130.15c0-22.97-18.69-41.66-41.66-41.66h-4.94Z"/>
            </g>
        </g>
    </g>
</svg>
