<?xml version="1.0" encoding="UTF-8"?><svg id="Layer_2" xmlns="http://www.w3.org/2000/svg" viewBox="0 0 1000 1000"><defs><style>.cls-1{fill:#fff;}.cls-2{fill:#e10a17;}</style></defs><g id="Layer_1-2"><g><rect class="cls-1" width="1000" height="1000"/><g><path class="cls-2" d="m655.82,913.26h-311.64c-33.52,0-60.78-27.27-60.78-60.78V191.56c0-33.52,27.27-60.78,60.78-60.78h311.64c33.52,0,60.79,27.27,60.79,60.78v660.91c0,33.52-27.27,60.78-60.79,60.78ZM344.18,140.86c-27.96,0-50.7,22.75-50.7,50.7v660.91c0,27.96,22.74,50.7,50.7,50.7h311.64c27.96,0,50.71-22.75,50.71-50.7V191.56c0-27.96-22.75-50.7-50.71-50.7h-311.64Z"/><path class="cls-2" d="m570.52,140.86h-141.04c-2.79,0-5.04-2.26-5.04-5.04v-40.75c0-2.78,2.25-5.04,5.04-5.04h141.04c2.79,0,5.04,2.26,5.04,5.04v40.75c0,2.78-2.25,5.04-5.04,5.04Zm-136-10.08h130.96v-30.67h-130.96v30.67Z"/><path class="cls-2" d="m483.12,744.19c-.37,0-.75-.04-1.12-.13-2.29-.52-3.92-2.56-3.92-4.91v-184.78h-77.06c-1.73,0-3.35-.89-4.27-2.36-.92-1.47-1.02-3.31-.28-4.87l115.85-240.5c1.02-2.11,3.37-3.24,5.66-2.73,2.29.52,3.92,2.56,3.92,4.91v184.78h77.07c1.73,0,3.35.89,4.27,2.36.92,1.47,1.02,3.31.28,4.87l-115.85,240.51c-.86,1.77-2.64,2.85-4.54,2.85Zm-74.08-199.9h74.08c2.79,0,5.04,2.26,5.04,5.04v167.74l102.79-213.39h-74.08c-2.79,0-5.04-2.26-5.04-5.04v-167.74l-102.79,213.39Z"/></g></g></g></svg>