<?xml version="1.0" encoding="UTF-8"?>
<svg id="Layer_2" xmlns="http://www.w3.org/2000/svg" viewBox="0 0 1000 1000">
    <defs>
        <style>.cls-1{fill:#fff;}.cls-2{fill:#e10a17;}</style>
    </defs>
    <g id="Layer_1-2">
        <g>
            <rect class="cls-1" width="1000" height="1000"/>
            <g>
                <path class="cls-2"
                      d="m585.05,479c16.54,0,30.01,7.48,30.01,16.67s-13.46,16.67-30.01,16.67h-85.05c-61.62,0-111.75,27.85-111.75,62.08s50.13,62.08,111.75,62.08c44.74,0,85.07-14.78,102.74-37.66,1.33-1.72,1.01-3.69-.84-5.25-1.85-1.56-4.99-2.5-8.35-2.5h-93.55c-16.54,0-30-7.48-30-16.67s13.46-16.67,30-16.67h141.76c16.54,0,30.01,7.48,30.01,16.67,0,52.61-77.05,95.41-171.76,95.41s-171.76-42.8-171.76-95.41,77.05-95.42,171.76-95.42h85.05m0-10.08h-85.05c-47.49,0-92.34,10.39-126.29,29.25-35.82,19.9-55.55,46.98-55.55,76.25s19.73,56.35,55.55,76.25c33.95,18.86,78.8,29.25,126.29,29.25s92.34-10.39,126.29-29.25c35.82-19.9,55.55-46.98,55.55-76.25,0-15.25-17.23-26.75-40.08-26.75h-141.76c-22.85,0-40.08,11.5-40.08,26.75s17.23,26.75,40.08,26.75h86.44c-18.59,15.4-51.43,25.25-86.44,25.25-55.11,0-101.67-23.81-101.67-52s46.56-52,101.67-52h85.05c22.85,0,40.08-11.5,40.08-26.75s-17.23-26.75-40.08-26.75h0Z"/>
                <g>
                    <path class="cls-2"
                          d="m754.2,528.39c-1.65,0-3.26-.81-4.23-2.29-37.69-57.88-138.15-96.77-249.97-96.77s-212.28,38.89-249.97,96.77c-1.51,2.33-4.64,3-6.97,1.47-2.33-1.52-2.99-4.64-1.47-6.97,39.47-60.62,143.32-101.35,258.41-101.35s218.94,40.73,258.41,101.35c1.52,2.33.86,5.46-1.47,6.97-.85.55-1.8.82-2.75.82Z"/>
                    <path class="cls-2"
                          d="m500,769.37c-163.45,0-296.43-74.87-296.43-166.91,0-29.06,13.38-57.65,38.69-82.7,1.83-1.82,4.73-1.95,6.73-.32,2,1.63,2.44,4.5,1.04,6.66-10.12,15.53-15.25,31.79-15.25,48.32,0,80,118.98,145.09,265.22,145.09s265.22-65.09,265.22-145.09c0-16.53-5.13-32.79-15.25-48.32-1.41-2.16-.96-5.03,1.04-6.66,1.99-1.63,4.89-1.49,6.73.32,25.31,25.04,38.69,53.64,38.69,82.7,0,92.03-132.98,166.91-296.43,166.91Zm-273.42-213.23c-8.52,14.97-12.92,30.62-12.92,46.33,0,86.47,128.46,156.83,286.35,156.83s286.35-70.35,286.35-156.83c0-15.71-4.4-31.35-12.92-46.33,1.25,6.04,1.87,12.14,1.87,18.28,0,85.56-123.5,155.17-275.3,155.17s-275.3-69.61-275.3-155.17c0-6.14.63-12.24,1.87-18.28Z"/>
                    <path class="cls-2"
                          d="m500,729.59c-151.8,0-275.3-69.61-275.3-155.17,0-18.51,5.68-36.62,16.88-53.82,1.52-2.33,4.64-3,6.97-1.47,2.33,1.52,2.99,4.64,1.47,6.97-10.12,15.53-15.25,31.79-15.25,48.32,0,80,118.98,145.09,265.22,145.09s265.22-65.09,265.22-145.09c0-16.53-5.13-32.79-15.25-48.32-1.52-2.33-.86-5.46,1.47-6.97,2.34-1.53,5.46-.86,6.97,1.47,11.2,17.2,16.88,35.31,16.88,53.82,0,85.56-123.5,155.17-275.3,155.17Z"/>
                </g>
                <g>
                    <path class="cls-2"
                          d="m195.83,610.49c-.94,0-1.9-.26-2.75-.82-2.33-1.52-2.99-4.64-1.47-6.97,3.85-5.91,8.29-11.77,13.2-17.42,1.82-2.1,5-2.33,7.11-.5,2.1,1.83,2.33,5.01.5,7.11-4.6,5.3-8.76,10.79-12.36,16.31-.96,1.48-2.58,2.29-4.23,2.29Z"/>
                    <path class="cls-2"
                          d="m804.17,610.49c-1.65,0-3.26-.81-4.23-2.29-3.6-5.53-7.76-11.02-12.36-16.31-1.83-2.1-1.6-5.28.5-7.11,2.1-1.83,5.28-1.6,7.11.5,4.9,5.65,9.34,11.51,13.2,17.42,1.52,2.33.86,5.46-1.47,6.97-.85.55-1.8.82-2.75.82Z"/>
                    <path class="cls-2"
                          d="m500,851.24c-181.1,0-328.43-82.85-328.43-184.69,0-21.96,6.74-43.44,20.04-63.86,1.52-2.33,4.64-2.99,6.97-1.47,2.33,1.52,2.99,4.64,1.47,6.97-12.21,18.75-18.4,38.39-18.4,58.36,0,96.28,142.81,174.61,318.35,174.61s318.35-78.33,318.35-174.61c0-19.97-6.19-39.61-18.4-58.36-1.52-2.33-.86-5.46,1.47-6.97s5.46-.86,6.97,1.47c13.3,20.41,20.04,41.9,20.04,63.86,0,101.84-147.33,184.69-328.43,184.69Z"/>
                </g>
                <g>
                    <path class="cls-2"
                          d="m579.04,324.33c-.89,0-1.8-.24-2.61-.73-22.97-13.97-49.39-21.36-76.42-21.36s-53.45,7.38-76.42,21.36c-2.37,1.44-5.48.69-6.92-1.69-1.45-2.38-.69-5.48,1.69-6.92,24.55-14.93,52.78-22.82,81.66-22.82s57.11,7.89,81.66,22.83c2.38,1.45,3.14,4.55,1.69,6.92-.95,1.56-2.61,2.42-4.31,2.42Z"/>
                    <path class="cls-2"
                          d="m375.48,268.85c-1.62,0-3.2-.78-4.18-2.21-1.56-2.31-.95-5.44,1.35-7,37.66-25.48,81.7-38.95,127.35-38.95s89.59,13.44,127.22,38.86c2.31,1.56,2.91,4.69,1.35,7-1.56,2.3-4.69,2.91-7,1.35-35.96-24.29-78-37.13-121.57-37.13s-85.72,12.87-121.7,37.22c-.87.59-1.85.87-2.82.87Z"/>
                    <path class="cls-2"
                          d="m671.76,213.82c-1.01,0-2.04-.31-2.93-.94-49.45-35.35-107.83-54.04-168.83-54.04s-119.38,18.68-168.83,54.04c-2.27,1.62-5.41,1.09-7.03-1.17-1.62-2.26-1.1-5.41,1.17-7.03,51.17-36.58,111.58-55.92,174.69-55.92s123.52,19.33,174.69,55.92c2.26,1.62,2.79,4.77,1.17,7.03-.98,1.38-2.53,2.11-4.1,2.11Z"/>
                </g>
            </g>
        </g>
    </g>
</svg>
