<?xml version="1.0" encoding="UTF-8"?><svg id="Layer_2" xmlns="http://www.w3.org/2000/svg" viewBox="0 0 1000 1000"><defs><style>.cls-1{fill:#fff;}.cls-2{fill:#e10a17;}</style></defs><g id="Layer_1-2"><g><rect class="cls-1" width="1000" height="1000"/><g><path class="cls-2" d="m535.47,947.15h-70.94c-100.1,0-181.53-79.39-181.53-176.98V144.02c0-29.89,12.15-55.37,34.21-71.74,27.85-20.67,68.47-25.07,111.46-12.07l145.6,44.02c78.71,23.8,142.75,99.15,142.75,167.97v497.97c0,97.59-81.43,176.98-181.53,176.98ZM381.44,62.93c-22.51,0-42.67,5.89-58.22,17.44-19.72,14.64-30.14,36.65-30.14,63.65v626.15c0,92.03,76.91,166.9,171.45,166.9h70.94c94.54,0,171.45-74.87,171.45-166.9v-497.97c0-64.69-60.82-135.71-135.58-158.32l-145.6-44.02c-15.32-4.63-30.27-6.92-44.3-6.92Z"/><g><path class="cls-2" d="m488.49,146.08c11.64,0,25.06,1.77,38.97,5.48l34.33,9.15c6.68,1.78,11.52,5.45,10.79,8.18-.46,1.74-3.07,2.68-6.62,2.68-2.03,0-4.38-.31-6.81-.96l-34.33-9.15c-9.05-2.41-17.78-3.57-25.36-3.57-13.24,0-22.94,3.52-24.66,9.99-2.71,10.17,15.32,23.83,40.19,30.46,8.94,2.38,17.73,3.57,25.41,3.57s14.52-1.24,19.04-3.71c.67-.37.7-.99.08-1.65-.62-.66-1.82-1.28-3.17-1.64l-37.76-10.06c-6.68-1.78-11.52-5.45-10.79-8.18.46-1.74,3.07-2.68,6.62-2.68,2.03,0,4.38.31,6.81.96l57.21,15.25c6.68,1.78,11.52,5.45,10.79,8.18-2.65,9.94-17.56,15.35-37.9,15.35-11.64,0-25.06-1.77-38.97-5.48-38.22-10.19-65.93-31.19-61.77-46.82,2.65-9.94,17.56-15.35,37.9-15.35m0-10.08c-26.41,0-43.78,8.32-47.64,22.83-5.04,18.93,17.01,45.32,68.91,59.16,14.29,3.81,28.66,5.82,41.57,5.82,26.41,0,43.78-8.32,47.64-22.83.69-2.58,1.45-9.22-6.27-15.07-3.1-2.35-7.14-4.23-11.67-5.44l-4.73-1.26c4.22-2.49,5.61-6.2,6.02-7.72,2.34-8.79-4.87-17.03-17.93-20.51l-34.33-9.15c-14.29-3.81-28.66-5.82-41.57-5.82h0Zm-3.57,34.61c1.61-.96,6.01-2.63,14.55-2.63.78,0,1.56.01,2.36.04-2.5,2.26-3.44,4.86-3.76,6.06-.38,1.41-.78,4.04.2,7.09-7.74-4.13-12.14-8.31-13.34-10.57h0Z"/><path class="cls-2" d="m470.39,126.67c18.32,0,39.46,2.79,61.4,8.64,60.24,16.06,103.75,49.04,97.19,73.67-4.17,15.66-27.58,24.17-59.56,24.17-18.32,0-39.46-2.79-61.4-8.64-60.24-16.06-103.75-49.04-97.19-73.67,4.17-15.66,27.58-24.17,59.56-24.17m0-10.08h0c-38.68,0-63.94,11.54-69.3,31.66-4.3,16.13,5.36,34.13,27.19,50.68,19.37,14.69,46.77,27.23,77.14,35.33,22.05,5.88,44.18,8.98,64,8.98,38.68,0,63.94-11.54,69.3-31.66,9.41-35.29-46.73-70.65-104.33-86.01-22.05-5.88-44.18-8.98-63.99-8.98h0Z"/></g><path class="cls-2" d="m580.33,271.75c-20.73,0-46.09-3.11-76.61-9.26-106.04-21.38-134.66-92.89-136.74-118.64-.83-10.31-1.88-13.04-6.61-17.19-3.63-3.18-12.07.68-23.61,6.49-12.13,6.09-23,17.12-23.1,17.23-1.94,1.99-5.13,2.03-7.13.08-1.99-1.95-2.03-5.13-.08-7.12.49-.5,12.12-12.33,25.79-19.19,13.25-6.66,25.78-12.95,34.78-5.06,7.48,6.57,9.08,12.44,10.01,23.95.07.85,10.19,85.68,128.69,109.57,101.44,20.45,125.41,1.78,134.62-14.04,4.03-6.93,6.18-13.8,8.08-19.87,1.76-5.63,3.28-10.49,5.93-14.09,2.85-3.86,6.16-4.87,8.44-5.03,3.84-.27,7.9,1.62,11.67,5.46,9.56,9.73,16.74,21.15,19.98,27.98,1.19,2.51.12,5.52-2.39,6.72-2.51,1.2-5.52.13-6.72-2.39-2.34-4.93-8.78-15.79-18.07-25.25-2.06-2.1-3.37-2.5-3.77-2.47-.14,0-.53.27-1.04.95-1.65,2.24-2.94,6.36-4.42,11.12-1.95,6.25-4.39,14.03-8.99,21.94-10.98,18.86-32.97,28.11-68.72,28.11Z"/></g></g></g></svg>