<?xml version="1.0" encoding="UTF-8"?><svg id="Layer_2" xmlns="http://www.w3.org/2000/svg" viewBox="0 0 560.9 444.46"><defs><style>.cls-1{fill:#e10a17;}</style></defs><g id="Layer_1-2"><g><path class="cls-1" d="m514.6,444.46H46.3c-25.53,0-46.3-20.77-46.3-46.3v-178.79c0-18.02,10.58-34.54,26.96-42.08,1.68-.78,3.68-.04,4.46,1.65.78,1.68.04,3.68-1.65,4.46-14,6.45-23.05,20.57-23.05,35.98v178.79c0,21.83,17.76,39.58,39.58,39.58h468.29c21.83,0,39.59-17.76,39.59-39.58v-178.79c0-21.83-17.76-39.58-39.59-39.58H135.7c-1.86,0-3.36-1.5-3.36-3.36s1.5-3.36,3.36-3.36h378.89c25.53,0,46.31,20.77,46.31,46.3v178.79c0,25.53-20.77,46.3-46.31,46.3Z"/><path class="cls-1" d="m91.02,230.59h-17.96c-26.49,0-48.04-21.04-48.04-46.89V25.16c0-8.24,3.38-15.29,9.5-19.84C42.1-.31,53.05-1.54,64.58,1.95l36.86,11.15c20.75,6.27,37.62,26.24,37.62,44.52v126.08c0,25.86-21.55,46.89-48.04,46.89ZM52.01,6.71c-5.25,0-9.92,1.35-13.49,4.01-4.44,3.3-6.79,8.29-6.79,14.44v158.54c0,22.15,18.54,40.17,41.32,40.17h17.96c22.79,0,41.32-18.02,41.32-40.17V57.61c0-15.53-14.74-32.61-32.85-38.09h0l-36.86-11.15c-3.69-1.11-7.27-1.67-10.62-1.67Z"/><path class="cls-1" d="m99.77,52.79c-5.21,0-10.99-.83-16.56-2.32-7.79-2.08-14.82-5.3-19.81-9.08-5.81-4.4-8.36-9.26-7.18-13.69,1.17-4.42,5.8-7.37,13.03-8.29,6.21-.8,13.91-.09,21.7,1.98,15.34,4.09,29.53,13.22,26.99,22.76,0,0,0,0,0,0-1.62,6.07-9.04,8.63-18.17,8.63Zm-25.19-26.98c-1.57,0-3.07.09-4.48.27-4.65.6-7.07,2.12-7.4,3.36-.33,1.25,1,3.77,4.74,6.6,4.31,3.27,10.52,6.09,17.48,7.94,14.65,3.9,25.65,1.65,26.51-1.55.85-3.2-7.58-10.64-22.23-14.54-5.14-1.37-10.19-2.08-14.64-2.08Zm40.11,17.49h.03-.03Z"/><path class="cls-1" d="m506.18,342.33h-74.03c-22.16,0-40.19-18.03-40.19-40.18v-74.03c0-22.16,18.03-40.18,40.19-40.18h74.03c22.16,0,40.18,18.03,40.18,40.18v74.03c0,22.16-18.03,40.18-40.18,40.18Zm-74.03-147.68c-18.45,0-33.47,15.01-33.47,33.47v74.03c0,18.45,15.01,33.47,33.47,33.47h74.03c18.45,0,33.46-15.01,33.46-33.47v-74.03c0-18.45-15.01-33.47-33.46-33.47h-74.03Z"/><g><path class="cls-1" d="m436.03,265.63c-17.28,0-31.33-14.06-31.33-31.34s14.06-31.34,31.33-31.34,31.34,14.06,31.34,31.34-14.06,31.34-31.34,31.34Zm0-55.95c-13.57,0-24.61,11.04-24.61,24.62s11.04,24.62,24.61,24.62,24.62-11.04,24.62-24.62-11.04-24.62-24.62-24.62Z"/><path class="cls-1" d="m469.16,327.29c-17.28,0-31.34-14.06-31.34-31.34s14.06-31.34,31.34-31.34,31.34,14.06,31.34,31.34-14.06,31.34-31.34,31.34Zm0-55.95c-13.57,0-24.62,11.04-24.62,24.62s11.04,24.62,24.62,24.62,24.62-11.04,24.62-24.62-11.04-24.62-24.62-24.62Z"/><path class="cls-1" d="m502.29,265.63c-17.28,0-31.33-14.06-31.33-31.34s14.06-31.34,31.33-31.34,31.34,14.06,31.34,31.34-14.06,31.34-31.34,31.34Zm0-55.95c-13.57,0-24.61,11.04-24.61,24.62s11.04,24.62,24.61,24.62,24.62-11.04,24.62-24.62-11.04-24.62-24.62-24.62Z"/><path class="cls-1" d="m421.31,310.91c-8.14,0-14.77-6.63-14.77-14.77s6.63-14.77,14.77-14.77,14.77,6.63,14.77,14.77-6.63,14.77-14.77,14.77Zm0-22.82c-4.44,0-8.05,3.61-8.05,8.05s3.61,8.05,8.05,8.05,8.05-3.61,8.05-8.05-3.61-8.05-8.05-8.05Z"/><path class="cls-1" d="m517.02,310.91c-8.14,0-14.77-6.63-14.77-14.77s6.63-14.77,14.77-14.77,14.77,6.63,14.77,14.77-6.63,14.77-14.77,14.77Zm0-22.82c-4.44,0-8.05,3.61-8.05,8.05s3.61,8.05,8.05,8.05,8.05-3.61,8.05-8.05-3.61-8.05-8.05-8.05Z"/></g><path class="cls-1" d="m83.95,408.4h-3.29c-19.02,0-34.5-15.48-34.5-34.5v-86.77c0-19.02,15.48-34.5,34.5-34.5h3.29c19.02,0,34.49,15.48,34.49,34.5v86.77c0,19.02-15.47,34.5-34.49,34.5Zm-3.29-149.04c-15.32,0-27.78,12.46-27.78,27.78v86.77c0,15.32,12.46,27.78,27.78,27.78h3.29c15.32,0,27.77-12.46,27.77-27.78v-86.77c0-15.32-12.46-27.78-27.77-27.78h-3.29Z"/></g></g></svg>