<?xml version="1.0" encoding="UTF-8"?>
<svg id="Layer_2" xmlns="http://www.w3.org/2000/svg" viewBox="0 0 437.91 468.32" preserveAspectRatio="xMidYMid meet">
    <defs>
        <style>.cls-1{fill:#e10a17;}</style>
    </defs>
    <g id="Layer_1-2">
        <g>
            <path class="cls-1"
                  d="m275.66,220.16c11.03,0,20,4.98,20,11.11s-8.97,11.11-20,11.11h-56.7c-41.08,0-74.5,18.57-74.5,41.39s33.42,41.39,74.5,41.39c29.82,0,56.71-9.86,68.5-25.11.88-1.14.67-2.46-.56-3.5-1.23-1.04-3.33-1.67-5.57-1.67h-62.37c-11.03,0-20-4.98-20-11.11s8.97-11.11,20-11.11h94.5c11.03,0,20,4.98,20,11.11,0,35.07-51.37,63.61-114.51,63.61s-114.51-28.54-114.51-63.61,51.37-63.61,114.51-63.61h56.7m0-6.72h-56.7c-31.66,0-61.56,6.92-84.19,19.5-23.88,13.27-37.03,31.32-37.03,50.83s13.15,37.57,37.03,50.83c22.63,12.57,52.53,19.5,84.19,19.5s61.56-6.92,84.19-19.5c23.88-13.27,37.03-31.32,37.03-50.83,0-10.17-11.49-17.83-26.72-17.83h-94.5c-15.23,0-26.72,7.67-26.72,17.83s11.49,17.83,26.72,17.83h57.63c-12.4,10.27-34.29,16.83-57.63,16.83-36.74,0-67.78-15.88-67.78-34.67s31.04-34.67,67.78-34.67h56.7c15.23,0,26.72-7.67,26.72-17.83s-11.49-17.83-26.72-17.83h0Z"/>
            <g>
                <path class="cls-1"
                      d="m388.42,253.08c-1.1,0-2.18-.54-2.82-1.53-25.13-38.59-92.1-64.51-166.65-64.51s-141.52,25.93-166.65,64.51c-1.01,1.55-3.09,2-4.65.98-1.55-1.01-1.99-3.09-.98-4.65,26.32-40.41,95.55-67.56,172.28-67.56s145.96,27.15,172.28,67.56c1.01,1.56.57,3.64-.98,4.65-.57.37-1.2.54-1.83.54Z"/>
                <path class="cls-1"
                      d="m218.95,413.74c-108.97,0-197.62-49.92-197.62-111.27,0-19.37,8.92-38.44,25.79-55.13,1.22-1.21,3.16-1.3,4.49-.21,1.33,1.08,1.63,3,.69,4.44-6.74,10.36-10.16,21.2-10.16,32.21,0,53.33,79.32,96.73,176.81,96.73s176.81-43.39,176.81-96.73c0-11.02-3.42-21.86-10.16-32.21-.94-1.44-.64-3.35.69-4.44,1.33-1.09,3.26-1,4.49.21,16.87,16.7,25.79,35.76,25.79,55.13,0,61.36-88.65,111.27-197.62,111.27ZM36.67,271.58c-5.68,9.98-8.62,20.41-8.62,30.88,0,57.65,85.64,104.55,190.9,104.55s190.9-46.9,190.9-104.55c0-10.47-2.93-20.9-8.62-30.88.83,4.03,1.25,8.09,1.25,12.19,0,57.04-82.33,103.45-183.53,103.45s-183.53-46.41-183.53-103.45c0-4.1.42-8.16,1.25-12.19Z"/>
                <path class="cls-1"
                      d="m218.95,387.22c-101.2,0-183.53-46.41-183.53-103.45,0-12.34,3.79-24.41,11.25-35.88,1.01-1.55,3.09-2,4.65-.98,1.55,1.01,1.99,3.09.98,4.65-6.74,10.36-10.16,21.2-10.16,32.21,0,53.33,79.32,96.73,176.81,96.73s176.81-43.39,176.81-96.73c0-11.02-3.42-21.86-10.16-32.21-1.01-1.56-.57-3.64.98-4.65,1.56-1.02,3.64-.57,4.65.98,7.47,11.47,11.25,23.54,11.25,35.88,0,57.04-82.33,103.45-183.53,103.45Z"/>
            </g>
            <g>
                <path class="cls-1"
                      d="m16.17,307.82c-.63,0-1.26-.18-1.83-.54-1.55-1.01-1.99-3.09-.98-4.65,2.57-3.94,5.53-7.85,8.8-11.61,1.21-1.4,3.34-1.55,4.74-.33,1.4,1.22,1.55,3.34.33,4.74-3.07,3.53-5.84,7.19-8.24,10.88-.64.99-1.72,1.53-2.82,1.53Z"/>
                <path class="cls-1"
                      d="m421.74,307.82c-1.1,0-2.18-.54-2.82-1.53-2.4-3.69-5.17-7.35-8.24-10.88-1.22-1.4-1.07-3.52.33-4.74,1.4-1.22,3.52-1.07,4.74.33,3.27,3.76,6.23,7.67,8.8,11.61,1.01,1.56.57,3.64-.98,4.65-.57.37-1.2.54-1.83.54Z"/>
                <path class="cls-1"
                      d="m218.95,468.32C98.22,468.32,0,413.09,0,345.2c0-14.64,4.5-28.96,13.36-42.57,1.01-1.55,3.09-1.99,4.65-.98,1.55,1.01,1.99,3.09.98,4.65-8.14,12.5-12.27,25.59-12.27,38.9,0,64.19,95.21,116.4,212.23,116.4s212.23-52.22,212.23-116.4c0-13.32-4.13-26.41-12.27-38.9-1.01-1.56-.57-3.64.98-4.65s3.64-.57,4.65.98c8.86,13.61,13.36,27.93,13.36,42.57,0,67.89-98.22,123.12-218.95,123.12Z"/>
            </g>
            <g>
                <path class="cls-1"
                      d="m271.64,117.04c-.6,0-1.2-.16-1.74-.49-15.31-9.32-32.93-14.24-50.95-14.24s-35.64,4.92-50.95,14.24c-1.58.96-3.65.46-4.62-1.13-.96-1.58-.46-3.65,1.13-4.62,16.36-9.95,35.19-15.22,54.44-15.22s38.08,5.26,54.44,15.22c1.59.96,2.09,3.03,1.13,4.62-.63,1.04-1.74,1.61-2.87,1.61Z"/>
                <path class="cls-1"
                      d="m135.94,80.06c-1.08,0-2.14-.52-2.79-1.48-1.04-1.54-.64-3.63.9-4.67,25.11-16.99,54.47-25.97,84.9-25.97s59.73,8.96,84.81,25.91c1.54,1.04,1.94,3.13.9,4.67-1.04,1.53-3.13,1.94-4.67.9-23.97-16.2-52-24.76-81.05-24.76s-57.14,8.58-81.14,24.81c-.58.39-1.23.58-1.88.58Z"/>
                <path class="cls-1"
                      d="m333.46,43.37c-.68,0-1.36-.2-1.95-.63-32.97-23.57-71.89-36.02-112.55-36.02s-79.59,12.46-112.55,36.02c-1.51,1.08-3.61.73-4.69-.78-1.08-1.51-.73-3.61.78-4.69C136.61,12.89,176.88,0,218.95,0s82.35,12.89,116.46,37.28c1.51,1.08,1.86,3.18.78,4.69-.66.92-1.69,1.41-2.74,1.41Z"/>
            </g>
        </g>
    </g>
</svg>
